<?xml version="1.0" encoding="utf-8"?>
<!-- Generator: Adobe Illustrator 26.0.3, SVG Export Plug-In . SVG Version: 6.00 Build 0)  -->
<svg version="1.1" id="Layer_1" xmlns="http://www.w3.org/2000/svg" xmlns:xlink="http://www.w3.org/1999/xlink" x="0px" y="0px"
	 viewBox="0 0 864 1152" style="enable-background:new 0 0 864 1152;" xml:space="preserve">
<path d="M22,694.59c3.18-19.67,6.98-39.26,9.43-59.01c6.01-48.41,11.66-96.86,16.89-145.36c2.14-19.86,1.97-39.98,4.44-59.79
	c1.78-14.32,7.67-27.41,22.4-33.69c16.11-6.87,37.32-0.38,49.96,15.23c3.5,4.32,6.39,9.15,10.15,14.6c1.76-2.67,3.41-5.17,5.07-7.66
	c27.26-41.08,54.18-82.4,82.02-123.09c7.9-11.55,17.83-21.97,28.03-31.65c18.22-17.29,43.23-20.2,59.63-6.36
	c7.1,5.99,12.19,7.4,21.29,5.12c22.16-5.55,41.66,2.3,50.7,19.03c2.81,5.2,3.34,11.6,5.22,17.35c0.91,2.78,1.81,6.41,3.94,7.83
	c24.06,16.01,30.68,39.28,27.35,66.24c-0.87,7.05,0.08,12.13,4.85,17.23c3.2,3.41,5.36,7.8,8.21,12.1
	c4.69-6.34,9.42-12.29,13.56-18.62c1.09-1.67,0.7-4.59,0.37-6.85c-4.13-28.81,1.73-53.56,27.79-70.55c1.76-1.15,2.84-4.33,3.06-6.68
	c2.18-23.16,19.09-39.09,41.84-38.39c7.37,0.23,14.66,2.35,22.04,3.11c2.44,0.25,5.86-0.25,7.45-1.82
	c14.42-14.16,29.45-17.29,48.2-9.66c13.27,5.4,24,14.48,32.05,25.78c26.76,37.53,52.86,75.53,78.94,113.53
	c7.51,10.94,14.1,22.51,21.61,34.58c7.39-13.42,16.1-23.99,29.88-29.77c20.62-8.65,40.41-1.39,48.46,19.5
	c3.29,8.54,5.31,18.01,5.69,27.16c2.74,66.18,11.11,131.75,20.41,197.23c2.62,18.47,5.71,36.88,8.1,55.37
	c1.98,15.34,0.1,30.59-5.9,44.73c-21.36,50.32-52.84,94.73-82.48,140.95c-6.96-4.66-13.29-8.9-19.53-13.08
	c15.68-24.79,31.28-48.65,46.02-73.03c10.19-16.85,19.23-34.4,28.68-51.69c10.18-18.63,10.85-38.3,8.12-59.01
	c-8.76-66.31-16.87-132.72-24.79-199.14c-1.7-14.27-1.22-28.79-2.5-43.13c-0.58-6.5-2.52-13.01-4.76-19.19
	c-2.32-6.41-7.68-7.57-13.85-5.63c-9.33,2.93-16.24,9.44-19,18.18c-6.79,21.51-13.57,43.17-17.95,65.25
	c-9.45,47.61-10.02,95.91-8,144.27c0.11,2.62,0.01,5.25,0.01,8.96c-28.14-3.82-51.45,7.39-73.39,22.96
	c18.22-17.97,39.11-30.46,64.86-31.23c-1.36-28.72-4.31-56.66-3.57-84.51c0.84-31.63,5.07-63.17,7.58-94.77
	c0.27-3.43,0.04-7.66-1.72-10.37c-31.47-48.52-62.98-97.02-95.09-145.11c-6.9-10.33-15.45-19.85-24.59-28.28
	c-5.34-4.93-13.04-8.48-20.23-9.94c-10.16-2.07-16.03,4.21-15.91,14.75c0.38,32.08,8.67,62.53,23.19,90.63
	c18.44,35.7,39.28,70.15,59.1,105.14c1.42,2.5,2.94,4.93,5.15,8.61c-1.81-0.69-2.52-0.73-2.81-1.1
	c-29.88-38.92-60.09-77.65-82.59-121.55c-11.74-22.9-20.51-46.84-22.92-72.74c-0.14-1.55-0.43-3.26-1.22-4.53
	c-4.02-6.46-20.97-9.85-30.52-6.24c-8.67,3.27-12.93,10.19-9.7,20.75c9.82,32.04,19.58,64.16,31.28,95.53
	c11.97,32.09,26.2,63.34,39.27,95.06c-33.12-54.45-63.17-110.42-82.66-172.18c-12.15,5.75-19.15,15.01-19.5,26.97
	c-0.36,12.3,0.85,25.08,3.98,36.97c11.2,42.58,26.96,83.6,44.82,123.82c0.73,1.64,1.3,3.35,1.94,5.02c-0.85,0.41-1.7,0.81-2.56,1.22
	c-18.96-38.62-37.93-77.25-57.25-116.59c-9.89,13.52-14.17,28.94-12.91,45.88c2.49,33.46,13.82,64.48,27.5,94.66
	c8.24,18.18,16.98,36.22,26.82,53.58c11.83,20.88,10.91,40.81,0.14,61.58c-7.83,15.1-15.73,30.38-21.27,46.38
	c-7.73,22.33-4.72,45.29,0.77,67.84c7.63,31.28,20.07,60.62,36.06,88.5c2.24,3.9,4.53,7.77,7.29,12.52
	c-6.77,4.31-13.15,8.36-20.25,12.88c-29.13-50.96-53.73-102.64-51.48-162.78c0.77-20.63,8.43-39.42,17.77-57.57
	c4.26-8.29,8.5-16.59,12.6-24.96c5.24-10.69,3.61-20.69-1.58-31.29c-14.04-28.68-27.42-57.69-40.67-86.75
	c-3.47-7.62-5.54-15.88-9-26.02c-3.36,9.94-5.39,18.12-8.82,25.67c-12.87,28.35-25.42,56.9-39.68,84.56
	c-7.31,14.17-7.21,26.53-0.07,40.07c6.83,12.95,13.61,25.99,19.25,39.48c11.42,27.33,10.96,55.69,4.82,84.08
	c-8.87,41.04-25.6,78.88-48.14,115.17c-6.62-4.15-13-8.15-18.86-11.82c9.57-19.83,19.42-38.69,27.89-58.16
	c9.7-22.29,16.22-45.6,18.87-69.93c2.67-24.52-3.31-47.02-14.68-68.45c-3.87-7.3-7.66-14.63-11.47-21.97
	c-9.92-19.14-9.78-37.77,0.27-57.28c13.4-26.02,26.1-52.46,37.65-79.35c9.59-22.3,15.92-45.77,17.67-70.23
	c1.22-17.06-3.05-32.46-12.9-46.35c-19.3,39.37-38.32,78.16-57.34,116.96c-0.81-0.37-1.62-0.74-2.43-1.11
	c0.78-2.13,1.45-4.31,2.36-6.37c17.91-40.49,33.51-81.86,44.94-124.64c3.03-11.35,3.85-23.67,3.42-35.46
	c-0.42-11.77-7.56-20.67-17.8-26.3c-12.09,28.33-23.1,56.79-36.25,84.23c-13.14,27.42-28.43,53.82-42.77,80.66
	c-0.8-0.41-1.61-0.81-2.41-1.22c1.45-2.99,2.88-6,4.36-8.98c26.53-53.03,49.4-107.44,62.21-165.62c0.11-0.52,0.39-1.01,0.47-1.53
	c1.35-8.95,3.96-18.29-5.06-24.98c-7.77-5.76-23.26-4.99-31.74,1.52c-1.88,1.45-3.72,4.11-3.94,6.38
	c-2.94,30.34-14.2,57.83-28.74,84.12c-22.93,41.46-52.21,78.52-82.04,115.41c1.28-2.28,2.49-4.6,3.85-6.82
	c23.46-38.15,46.89-76.33,64.07-117.87c9.69-23.43,17.84-47.39,20.84-72.74c1.03-8.67,2.75-18.63-6.45-23.86
	c-9.07-5.16-18.29-0.73-25,5.39c-9.59,8.75-19.12,18.13-26.31,28.83c-33,49.11-65.2,98.74-97.53,148.3
	c-1.43,2.19-2.13,5.58-1.68,8.15c10.28,58.54,10.43,117.27,3.76,176.16c-0.15,1.28-0.19,2.58-0.21,2.77
	c12.39,3.82,24.78,6.22,35.83,11.46c11.13,5.28,20.93,13.37,30.68,21.48c-22.47-14.46-45.42-26.67-74.21-22.34
	c0-3.46-0.11-6.27,0.02-9.07c2.83-63.2-0.39-125.88-17.38-187.18c-2.87-10.35-8.29-20.06-13.08-29.79
	c-1.44-2.92-4.44-5.35-7.22-7.29c-11.76-8.22-20.79-5.34-23.61,8.57c-2.37,11.67-2.58,23.77-3.82,35.67
	c-5.66,54.34-11.07,108.71-17.16,163c-2.49,22.23-6.42,44.31-9.8,66.44c-3.47,22.75,4.73,42.76,15.69,61.55
	c21.87,37.52,44.64,74.51,67.54,112.55c-5.31,3.56-11.64,7.81-18.56,12.46c-6.58-9.94-13.33-19.16-19.07-28.98
	c-20.69-35.39-41.46-70.76-61.23-106.67c-4.85-8.81-6.01-19.65-8.87-29.56C22,709.53,22,702.06,22,694.59z"/>
</svg>
