<?xml version="1.0" encoding="utf-8"?>
<!-- Generator: Adobe Illustrator 26.0.3, SVG Export Plug-In . SVG Version: 6.00 Build 0)  -->
<svg version="1.1" id="Layer_1" xmlns="http://www.w3.org/2000/svg" xmlns:xlink="http://www.w3.org/1999/xlink" x="0px" y="0px"
	 viewBox="0 0 864 1152" style="enable-background:new 0 0 864 1152;" xml:space="preserve">
<path d="M430.75,978.97C199.84,975.76,17.08,795.44,17.1,564.55c0.02-231.19,183.26-414.04,414.38-413.65
	c230.99,0.39,413.38,183.58,412.98,414.38C844.07,795.98,661.34,975.8,430.75,978.97z M512.82,784.4
	c-5.65-3.04-11.66-5.79-17.19-9.3c-28.06-17.82-46-44.16-54.79-75.07c-10.41-36.63-17.81-74.22-24.6-111.74
	c-8.89-49.12-26.23-94.82-50.86-137.95c-2.39-4.18-5.65-7.93-8.85-11.58c-3.29-3.75-6.52-2.71-8.18,1.53
	c-5.39,13.78-7.19,28.57-2.23,42.19c18.51,50.82,38.14,101.21,52.16,153.59c5.72,21.36,4.73,40.16-12.14,56.05
	c-15.78,14.86-31.06,30.32-47.59,44.31c-21.26,18-43.96,34.18-69.54,45.75c-14.83,6.71-30.04,11.79-46.72,11.4
	c-23.49-0.55-34.9-20.04-33.17-38.82c1.28-13.96,4.49-27.96,8.6-41.41c9.44-30.86,19.96-61.39,30-92.07
	c0.85-2.61,1.37-5.32,2.04-7.99c-0.62-0.23-1.25-0.46-1.87-0.69c-6.61,12.71-13.58,25.25-19.76,38.16
	c-21.23,44.37-33.16,90.87-30.56,140.41c0.67,12.73,3.79,25.05,12.54,34.91c12.36,13.92,28.68,14.4,45.4,11.98
	c21.67-3.14,40.86-12.74,59.1-24.25c35.47-22.39,66.81-49.62,93.13-82.32c10.06-12.5,20.51-25.14,22.12-42.22
	c0.32-3.38,0.74-6.75,1.23-11.27c4.43,17.12,8.56,32.9,12.61,48.69c11,42.91,34.03,76.87,73.53,98.41
	c27.64,15.08,56.97,24.86,88.55,27.4c5.22,0.42,8.25-1.64,9.25-6.34c1.74-8.22,2.75-16.6,4.6-24.79c1.44-6.39-1.23-9.2-6.63-12.27
	c-18.42-10.46-36.63-21.34-54.49-32.73c-12.92-8.24-13.12-12.05,0.26-18.33c25.2-11.82,50.61-23.46,76.75-32.94
	c44.18-16.02,89-30.29,133.54-45.34c2.49-0.84,5.7-1.37,7.13-3.18c8.87-11.21,13.87-24.11,16.39-39.58c-5.4,0-9.73-0.12-14.06,0.02
	c-10.86,0.35-21.72,0.85-32.59,1.23c-29.7,1.03-59.4,2.62-89.11,2.88c-47.25,0.42-94.51-0.03-141.77-0.18
	c-2.32-0.01-4.63-0.75-7.9-1.32c36.68-36.49,79.22-61.31,125.95-79.84c1.59,4.56,2.39,8.09,4.06,11.14c1,1.85,3.35,2.96,5.09,4.41
	c1.42-1.99,3.8-3.86,4.08-6c0.62-4.78,0.19-9.69,0.19-14.54c1.49-0.58,2.47-1.03,3.49-1.34c15.83-4.88,31.53-10.26,47.54-14.4
	c7.72-2,11.66-5.77,14.46-13.15c10.78-28.44,9.39-35.8-14.38-54.9c-14.17-11.39-29.31-21.54-47.17-26.44
	c-17.4-4.78-35.8,1.62-43.22,15.19c-5.93,10.84-7.85,22.88-4.96,34.71c2.8,11.44,7.7,22.38,11.82,33.95
	c-0.79,0.44-2.29,1.33-3.83,2.13c-37.44,19.3-74.01,40-105.29,68.67c-20.7,18.97-38.31,40.24-42.72,69.18
	c-2.2,14.48-2.44,16.45,13.43,16.46c49.07,0.02,98.14,0.01,147.21,0.01c2.31,0,4.62,0,6.93,0c-1.25,2.05-2.67,2.92-4.18,3.6
	c-16.97,7.58-33.88,15.3-50.96,22.63c-18.34,7.86-31.91,20.03-36.43,40.11C515.92,761.72,514.73,772.51,512.82,784.4z M95.74,693.12
	c0.64,0.9,1.28,1.8,1.93,2.7c49.94-18.93,88.98-51.53,118.83-96.77c4.92,2.56,10.14,5.29,15.8,8.24c1.17-3.05,2.33-6.12,3.5-9.17
	c5.35-13.92,5.43-14.08-8.03-20.68c-3.42-1.68-4.14-3.39-3.89-7.05c0.58-8.57,0.2-17.2,0.66-25.79c0.18-3.45,0.66-7.45,2.52-10.16
	c12.11-17.62,17.96-36.84,16.02-58.22c-0.67-7.35-4.76-11.29-11.92-10.11c-5.95,0.98-12.07,3.11-17.26,6.18
	c-17.7,10.47-32.89,24.12-46.19,39.73c-21.6,25.35-33.34,54.14-28.65,88.07c0.97,7.01,2.56,14.58,10.11,17.57
	c8.13,3.21,15.74,0.54,22.17-4.95c2.47-2.11,4.75-4.8,6.16-7.69c3-6.17,5.38-12.65,7.89-18.71c6.25,3.2,12.64,6.48,19.45,9.96
	C174.97,636.23,132.21,661.2,95.74,693.12z M555.43,252.74c-1.17-0.22-2.34-0.43-3.51-0.65c-1.04,3.53-2.95,7.05-2.98,10.59
	c-0.19,19.08,0.17,38.16,0.13,57.24c-0.01,5.3-0.1,10.75-1.32,15.85c-2.35,9.81-9.09,11.61-16.65,5c-1.14-1-2.33-1.96-2.38-2
	c-6.87,2.87-12.68,6.75-18.91,7.62c-14.46,2.01-29.11,3.35-43.69,3.49c-12.31,0.11-24.67-1.56-36.94-3.06
	c-5.51-0.67-10.25-4.08-11.49-9.81c-2.21-10.24-3.68-20.64,2.98-30.12c0.34-0.48,0.34-1.21,0.57-2.09c-1.57-0.12-2.9-0.21-4.09-0.3
	c-0.28-2.93-0.52-5.4-0.76-7.87c-0.66-0.15-1.31-0.31-1.97-0.46c-1.32,2.53-3.7,5.04-3.73,7.59c-0.06,4.21-1.89,6.17-5.14,8.29
	c-8.38,5.47-16.46,11.33-19.33,21.85c-2.06,7.56,0.7,12.54,8.59,12.78c5.49,0.16,11.03-1.46,16.91-2.35
	c5.02,10.06,12.76,15.75,25.62,16.15c16.57,0.51,33.23,0.73,49.76-0.31c12.45-0.79,25.45-1.33,34.55-9.25
	c6.31,1.56,11.99,4.76,16.58,3.61c4.77-1.2,8.47-6.6,12.6-10.13c6.86,10.55,20.07,10.25,34.64,5.29
	c8.49-2.89,17.75-5.96,18.59-18.45c-2.6,1.62-4.35,3.05-6.34,3.88c-4.66,1.93-9.33,4.43-14.21,5.13
	c-6.58,0.93-13.92-6.01-14.25-12.22c-0.25-4.57,4.54-8.62,12.1-8.67c5.21-0.03,10.43,1.68,15.38,2.57
	c-2.05-9.64-14.57-14.48-22.4-11.06c-10.72,4.68-14.33,18.17-7.96,31.13c-5.74-0.32-8.35-1.59-9.2-7.09
	c-1.23-8.04-1.57-16.27-1.67-24.43C555.28,291.23,555.43,271.98,555.43,252.74z M289.75,537.5c8.08,10.49,11.63,22.98,14.42,35.75
	c0.21,0.94-1.41,2.44-2.4,3.46c-6.07,6.31-6.2,13.83-5.43,23.1c3.29-2.93,5.14-5.45,7.62-6.54c2.1-0.92,4.92-0.19,7.43-0.19
	c0,0.75,0,1.49-0.01,2.24c-0.77,0.32-1.54,0.64-2.31,0.96c-14.33,5.85-19.15,14.26-16.84,29.68c2.98,19.91,6.12,39.8,9.06,59.71
	c1.04,7.05,1.69,14.15,2.52,21.23c0.61,0.01,1.23,0.02,1.84,0.03c0.56-3.31,1.43-6.6,1.63-9.93c1.51-24.59-1.74-48.7-8.55-72.26
	c-1.49-5.16-0.24-7.34,4.11-9.07c6.16-2.45,12.1-5.71,18.46-7.33c13.16-3.35,14.62-20.08,6.5-26.73c-4.78-3.91-10.82-6.27-16.97-9.7
	c4.66-15.36,5.92-33.08,15.05-48.53c4.17,2.42,7.9,4.59,12.5,7.26c1.2-3.72,2.7-6.53,2.92-9.43c0.41-5.43-0.15-10.65-6.53-13.06
	c-6.66-2.52-10.96,1.02-13.9,5.85c-2.84,4.65-4.82,9.99-6.3,15.27c-2.28,8.15-3.82,16.51-5.67,24.77
	c-2.51-6.09-3.79-12.29-5.66-18.31c-2.48-7.98-6.34-15.3-14.04-19.43c-3.46-1.86-7.49-4.71-11.4-0.42
	c-5.84,6.4-7.34,12.91-4.15,17.77C277.29,539.25,281.24,540.26,289.75,537.5z M513.62,396.9c0.95,0.44,1.89,0.88,2.84,1.32
	c3.51-6.71,7.72-13.16,10.35-20.19c2.77-7.42,0.27-9.63-7.7-8.21c-29.3,5.23-58.79,8.63-88.57,6.77c-11.62-0.73-23.35-2.6-34.6-5.57
	c-13.09-3.46-18.47-12.09-18.47-25.69c0-15.31,0.02-30.62-0.02-45.93c-0.01-2.68-0.25-5.35-0.38-8.03
	c-0.95-0.15-1.91-0.31-2.86-0.46c-1.17,3.71-3.34,7.42-3.34,11.13c0.01,17.52,0.71,35.03,0.95,52.55
	c0.12,8.81-2.44,13.3-10.53,15.61c-8,2.28-10.6,7.72-11.87,14.84c-1.18,6.61-4.03,12.23-10.19,15.56
	c-10.86,5.89-21.77,11.71-32.68,17.52c-2,1.06-4.12,1.92-7.12,3.31c18.71,5.1,40.06-5.06,52.19-24c0.9,1.05,1.56,2.5,2.63,2.95
	c4.02,1.7,8.86,5.08,12.1,4c3.3-1.11,7.09-6.75,7.08-10.39c-0.03-6.13-2.9-12.25-4.58-18.38c-0.58,0.21-1.15,0.41-1.73,0.62
	c2.42-2.71,4.84-5.42,7.41-8.3c5.34,9.71,14.25,14.64,24.51,16.57c11.27,2.12,22.75,3.81,34.18,4.23
	c23.97,0.87,47.78-1.29,71.31-6.17c5.06-1.05,10.2-1.73,17.42-2.93C518.65,386.47,516.14,391.69,513.62,396.9z M461.41,298.15
	c1.33,5.11,3.3,12.43,10.41,12.44c5.21,0,10.42-4.31,16.61-7.14c0.2,2.09,0.53,5.47,1.04,10.78c2.02-3.1,3.32-5.1,4.45-6.84
	c2.87,0.77,4.97,1.57,7.14,1.88c11.54,1.69,22.24,0.11,30.33-9.22c6.65-7.67,6.41-18.45-0.1-24.66c-6.44-6.15-15.26-5.83-23.08,1.82
	c-5.46,5.34-9.93,11.7-15.1,17.92c-1.48-0.98-3.39-2.24-5.38-3.57c-1.52,1.91-2.46,4.03-4.07,4.9c-2.91,1.57-6.5,3.72-9.28,3.13
	c-2.46-0.52-4.94-4.13-6.06-6.92c-1.19-2.95-0.98-6.54-1.04-9.85c-0.33-20.85-0.55-41.7-0.82-62.55c-0.03-2-0.18-4-0.27-6
	c-0.9-0.15-1.81-0.3-2.71-0.45c-1.16,3.72-3.3,7.45-3.31,11.17c-0.06,17.96,0.37,35.92,0.81,53.88c0.24,9.63-3.63,15.62-13.11,18.9
	c-9.82,3.39-18.04,9.43-22.28,19.59c-3.3,7.92-1.32,13.01,7.04,15.26c6.36,1.71,13.11,3.25,19.6,2.98
	c23.42-0.99,46.82-2.52,70.19-4.4c8.23-0.66,17.87-0.08,20.68-11.41c-0.46-0.13-1.06-0.43-1.63-0.41c-1.32,0.05-2.65,0.19-3.96,0.4
	c-29.19,4.67-58.54,6.79-88.07,4.84c-6.59-0.44-13.62-0.9-19.49-7.38C440.62,310.77,450.79,304.6,461.41,298.15z M521.35,481.45
	c-5.12,4.44-7.37,10.1-5.71,16.16c2.37,8.66,6.02,16.96,8.95,25.47c0.64,1.87,1.44,5.14,0.62,5.76c-1.86,1.43-5.22,2.84-6.98,2.05
	c-3.18-1.43-6.49-3.99-8.19-6.97c-2.12-3.73-2.87-8.3-3.84-12.59c-2.07-9.12-3.89-18.29-5.82-27.44c-0.94-0.1-1.89-0.19-2.83-0.29
	c-1.31,3.69-3.73,7.4-3.68,11.08c0.08,5.42,2.34,10.77,2.92,16.23c0.57,5.4,1.04,11.06,0.01,16.3c-1.09,5.57-7.77,8.87-13.72,8.01
	c-5.86-0.85-8.28-4.94-8.39-10.29c-0.11-4.81,0.29-9.67,0.92-14.45c0.88-6.72,2.23-13.39-2.03-19.49
	c-11.17,4.16-12.83,8.12-8.81,18.32c1.1,2.79,1.13,6.01,1.62,9.04c1.48,9.12,2.05,18.52,4.66,27.3c2.58,8.65,10.66,11.34,18.1,6.57
	c3.88-2.49,6.6-6.88,9.6-10.61c1.23-1.54,1.81-3.6,2.97-6.03c1.24,2.26,1.95,3.62,2.72,4.95c3.41,5.85,8.3,9.26,15.27,8.51
	c6.92-0.74,10.4-5.6,12.12-11.69c2.91-10.28,2.51-20.49-1.35-30.57C527.35,498.58,524.52,490.26,521.35,481.45z M746.95,598.31
	c-7.08,1.38-14.11,3.21-21.26,4.04c-9.17,1.06-18.47,2.16-27.64,1.69c-8.54-0.44-10.77-6.06-5.47-12.63
	c5.54-6.88,12.1-12.93,17.85-19.65c4.43-5.17,8.86-10.5,12.25-16.36c3.46-5.96,1.36-11.7-5.13-12.98
	c-6.98-1.37-14.54-1.71-21.52-0.55c-6.47,1.08-9.86,6.76-10.99,13.57c9.12-0.16,18.03-2.36,27.25,1.98
	c-5.79,6.36-11.69,11.58-15.99,17.88c-5.13,7.53-10.08,15.61-12.95,24.17c-3.27,9.76,2.14,17.15,12.34,18.53
	c6.25,0.84,12.81,0.72,19.06-0.15C727.8,616.04,739.29,610.88,746.95,598.31z M425.93,486.43c1.89-0.5,2.75-0.65,3.56-0.95
	c42.78-16.23,85.54-32.49,128.33-48.68c6.7-2.54,7.67-8.02,8.85-14.79c-3.08,1.03-5.14,1.67-7.15,2.41
	c-39.45,14.45-78.77,29.31-118.45,43.1C431.47,470.86,428.51,477.24,425.93,486.43z M288.84,348.43c1.03,1.85,2.42,5.44,4.72,8.27
	c6.15,7.56,12.47,6.99,14.96-2.17c2.33-8.57,1.86-17.87,3.24-26.75c1.36-8.8-5.48-18.25,2.17-26.51c0.28-0.3-0.08-1.27-0.25-1.89
	c-1.44-5.4-2.91-10.8-4.41-16.34c-5.5,3.77-6.41,9.22-6.03,15.24c0.92,14.37,1.88,28.75,2.59,43.13c0.13,2.59-0.84,5.24-1.31,7.87
	c-0.83,0.02-1.66,0.04-2.49,0.06c-12.62-11.18-13.61-24.84-7.05-40.2c-1.3,0.09-2.5,0.18-3.69,0.27c-0.43-3.2-0.83-6.12-1.23-9.05
	c-2.92,2.53-5.52,5.43-5.41,8.22c0.19,4.79-2.37,6.49-5.66,8.64c-8.14,5.32-14.86,11.87-17.34,21.82
	c-1.47,5.91,0.7,10.33,6.45,10.81C274.58,350.38,281.21,349.04,288.84,348.43z M396.39,250.81c0.41,0.13,0.82,0.27,1.22,0.4
	c-1.38-2.55-2.76-5.11-4.35-8.06c-1.29,1.63-3.4,3.09-3.27,4.32c0.7,6.46-5.03,7.33-8.18,10.6c-4.78,4.97-9.54,10.27-12.86,16.24
	c-3.14,5.65-0.14,10.28,6.37,10.4c4.99,0.09,10.01-1.63,15.43-2.62c5.51,8.46,10.07,8.52,21.27,0.83c6.41,1.57,11.8,4.69,15.94,3.49
	c6.01-1.74,7.46-8.47,6.77-14.5c-1.25-10.83-3.04-21.59-4.61-32.39c-0.87-0.09-1.74-0.19-2.61-0.28c-0.68,3.97-2.14,7.99-1.85,11.89
	c0.43,5.9,2.35,11.68,3.09,17.58c0.35,2.79-0.57,5.74-0.92,8.61c-3.03-0.96-6.62-1.25-8.93-3.11c-1.88-1.51-2.89-4.86-3.14-7.5
	c-0.77-8.03-0.98-16.12-1.41-24.19c-0.71-0.2-1.43-0.41-2.14-0.61c-1.05,2.74-2.86,5.45-2.98,8.23c-0.29,6.85,0.25,13.74,0.35,20.61
	c0.08,5.48-3.48,7.28-8.2,7.43c-4.74,0.16-7.12-2.78-6.93-7.08C394.73,264.34,395.71,257.58,396.39,250.81z M500.79,420.83
	c0.13,0.61,0.26,1.23,0.39,1.84c6.69,0,14.01,1.75,19.92-0.39c9.86-3.57,19.28-8.95,28.05-14.81c13.22-8.83,17.05-22.31,12.19-37.42
	c-1.89-5.86-4.87-11-11.47-11.39c-6.61-0.4-10.11,4.72-12.96,9.91c-0.84,1.52-1.34,3.29-1.68,5.01
	c-1.62,8.16,3.03,13.94,11.36,14.34c3.11,0.15,6.21,0.46,9.32,0.7c0.13,0.72,0.25,1.45,0.38,2.17
	C540.55,405.55,520.31,412.58,500.79,420.83z M301.27,379.96c0.76,0.97,0.98,1.53,1.29,1.6c1.29,0.27,2.61,0.39,3.92,0.57
	c18.13,2.45,31.92-7.15,44.94-17.31c11.94-9.32,14.69-22.78,9.61-37.14c-2.61-7.38-7.71-10.95-13.76-9.63
	c-6.33,1.38-12.56,10.79-11.98,18.09c0.52,6.6,4.61,10.25,12.01,10.78c2.91,0.21,5.82,0.48,8.73,0.73c0.14,0.63,0.29,1.26,0.43,1.9
	C341,364.58,320.73,371.47,301.27,379.96z M262.86,644.47c-18.3,10-28.39,33.56-25.74,49.85c1.79,10.99,12.3,16.42,22.49,11.91
	c9.61-4.26,12.76-12.97,15.79-23.55c-5.23,3.76-8.93,6.95-13.1,9.32c-7.06,4.01-14.49,0.32-13.84-7.63
	c0.61-7.45,3.54-14.81,6.1-21.97C256.57,656.72,259.59,651.41,262.86,644.47z M116.76,518.75c-16.81,11.17-25.32,26.38-24.48,46.38
	c0.34,8.02,3.72,12.3,11.53,13.88c12.32,2.51,23.9-7.95,25.11-23.43c-2.81,2.67-5.2,4.91-7.54,7.19c-4.06,3.97-8.81,5.43-13.92,2.69
	c-5.06-2.72-5.94-7.99-4.62-12.76c1.94-6.97,4.97-13.66,7.74-20.38C112.46,527.72,114.69,523.27,116.76,518.75z M546.49,232.95
	c-0.35-0.66-0.7-1.32-1.05-1.98c-23.36,9.19-46.8,18.19-69.97,27.84c-2.72,1.13-3.92,5.89-6.55,10.14
	c23.37-9.09,44.63-17.65,66.15-25.52C540.81,241.35,544.62,238.5,546.49,232.95z M325.61,281.8c-2.03,3.46-4.34,5.73-4.65,8.25
	c-0.71,5.89-0.78,11.92-0.53,17.87c0.72,17.37,1.73,34.73,2.62,52.09c2.24-4.38,4.68-9.38,4.78-14.41
	c0.23-12.39-0.68-24.8-0.97-37.21c-0.04-1.83,0.78-3.68,1.18-5.53c0.44-2.03,1.47-4.16,1.16-6.07
	C328.49,292.29,327.13,287.89,325.61,281.8z M355.9,254.87c-0.63-0.33-1.25-0.66-1.88-1c-17.64,8.72-35.71,13.32-55.06,5.49
	c-0.59,0.42-1.19,0.85-1.78,1.27c2.27,5.84,4.53,11.67,6.8,17.51c0.6-0.06,1.19-0.13,1.79-0.19c0.13-2.66,0.27-5.31,0.42-8.4
	c7.68,0,15.53,0.89,23.07-0.25c7.43-1.13,14.54-4.32,21.79-6.61c0.16,1.02,0.32,2.11,0.49,3.2c0.58,0.07,1.16,0.13,1.74,0.2
	C354.16,262.34,355.03,258.61,355.9,254.87z M448.26,216.34c-6.78,4.96-6.4,11.7-6.03,18.54c0.77,14.39,1.41,28.8,2.06,43.2
	c0.12,2.63,0.02,5.27,0.02,7.9c0.61,0.1,1.23,0.2,1.84,0.31c1.16-4.12,3.11-8.2,3.31-12.37c0.36-7.28-0.61-14.62-0.53-21.93
	c0.07-6.34-3.18-13.38,3.2-18.18c-0.93-3.18-1.88-5.91-2.5-8.7C449.03,222.39,448.76,219.61,448.26,216.34z M439.33,410.99
	c3.57,2.79,6.68,5.22,9.72,7.6c8.4-6.45,9.66-10.11-5.15-17.99c-2.01,3.01-4.05,6.05-6.15,9.2c-3.75-2.81-7.2-5.4-10.61-7.96
	c-8.02,9.85-7.2,12.23,5.98,18.42C435.05,417.39,437,414.48,439.33,410.99z M366.94,291.73c-0.34-0.65-0.68-1.3-1.02-1.95
	c-9.45,4.42-19,8.66-28.27,13.45c-1.64,0.85-2.1,3.99-3.1,6.07c0.47,0.34,0.94,0.67,1.42,1.01
	C345.4,302.67,359.42,302.49,366.94,291.73z M592.31,277.3c-0.48-0.53-0.97-1.07-1.45-1.6c-9.5,4.13-19.08,8.07-28.42,12.52
	c-2.11,1.01-3.36,3.82-5.01,5.81c10.73-2.85,20.17-6.6,29.37-10.89C589.05,282.09,590.5,279.29,592.31,277.3z M404.62,225.16
	c-1.32,2.93-2.21,4.16-2.41,5.49c-1.5,10.15,3.81,8.83,11.12,7.76c4.63-0.68,6.39-1.72,6.64-5.83c0.19-3.17,0.04-6.36,0.04-9.54
	c-0.81-0.06-1.63-0.13-2.44-0.19c-0.45,3.04-0.91,6.07-1.62,10.82c-2.08-3.51-3.52-5.94-5.1-8.6c-1.35,3.04-2.6,5.85-3.85,8.66
	c-0.53-0.2-1.06-0.39-1.59-0.59C405.2,231.1,405.01,229.06,404.62,225.16z M473.93,222.5c-0.89,0.02-1.78,0.05-2.68,0.07
	c0.27,3.39,0.24,6.85,1.01,10.12c0.2,0.86,2.89,1.58,4.44,1.57c2.64-0.01,5.39-0.28,7.87-1.13c1.63-0.56,3.85-2.16,4.06-3.55
	c0.56-3.8,0.19-7.74,0.19-11.63c-0.79-0.02-1.57-0.04-2.36-0.05c-0.48,3.07-0.96,6.14-1.73,11.03c-2.1-3.67-3.39-5.92-4.83-8.43
	c-1.4,3.09-2.56,5.67-3.73,8.25c-0.42-0.11-0.84-0.22-1.26-0.33C474.59,226.45,474.26,224.47,473.93,222.5z"/>
<path d="M649.95,506.51c-12.37,4.51-24.7,9.01-37.61,13.72c-4.84-10.77-9.59-21.33-14.36-31.94
	C609.9,483.63,645.35,496.24,649.95,506.51z"/>
<path d="M222.21,531.27c-12.56-6.32-20.31-4.99-29.38,4.79c-9.49,10.24-15.25,22.05-15.28,36.47c-0.03,12.98-6.31,20.92-16.51,22.21
	c-6.95,0.88-9.84-1-11.63-7.78c-2.57-9.76-0.29-19.09,3.86-27.74c11-22.91,26.04-42.91,46.36-58.31c5.93-4.49,13.62-7.56,20.96-9.04
	c9.3-1.88,13.99,3.08,11.72,12.25C230.03,513.39,225.69,522.15,222.21,531.27z"/>
<path d="M211.5,571.26c-4.6-2.07-9.63-3.54-13.65-6.42c-2.55-1.83-5.44-6.24-4.83-8.63c0.68-2.66,5.01-5.7,8.05-6.06
	c2.98-0.35,8.03,1.66,9.17,4.06c2.31,4.83,2.59,10.63,3.7,16.03C213.13,570.57,212.31,570.92,211.5,571.26z"/>
<path d="M410.54,317.11c0,7.11,0,12.31,0,18.39c-4.24,0.25-8.32,0.85-12.34,0.58c-1.87-0.13-4.22-1.58-5.18-3.15
	c-0.5-0.81,1.19-3.66,2.56-4.77C399.94,324.59,404.62,321.42,410.54,317.11z"/>
<path d="M354.77,381.9c7.38,1.05,11.75,4.81,14.14,11.32C360.12,396.5,354.26,391.93,354.77,381.9z"/>
<path d="M497.74,298.1c4.64-7.67,9.93-13.48,18.12-16.34c6.03-2.11,10.08,0.77,12.79,5.25c0.97,1.61-0.03,6.2-1.59,7.26
	C518.24,300.25,508.56,301.92,497.74,298.1z"/>
<path d="M285.13,321.53c0.33,3.84,0.75,6.21,0.69,8.57c-0.08,3-0.24,8.52-0.89,8.59c-5.08,0.62-10.29,0.19-15.47,0.08
	c0.06-2.05-0.72-5.08,0.33-5.98C274.37,328.89,279.47,325.59,285.13,321.53z"/>
<path d="M372.52,271.75c5.82-3.88,10.8-7.2,15.78-10.52c0.68,0.38,1.36,0.76,2.04,1.14c-0.97,4.14-0.64,10.05-3.24,11.96
	C383.81,276.75,377.93,277.23,372.52,271.75z"/>
<path d="M557.56,378.06c-6.51-1.02-11.76-1.84-17.02-2.67c-0.3-0.92-0.6-1.84-0.91-2.75c2.79-1.69,5.48-4.59,8.38-4.82
	C554.04,367.35,555.65,372.46,557.56,378.06z"/>
<path d="M339.53,331.22c3.14-1.64,6.25-4.56,9.44-4.64c5.99-0.16,6.92,5.35,8.97,10.7c-6.47-1.07-11.96-1.97-17.45-2.88
	C340.17,333.34,339.85,332.28,339.53,331.22z"/>
</svg>
