<?xml version="1.0" encoding="utf-8"?>
<!-- Generator: Adobe Illustrator 26.0.3, SVG Export Plug-In . SVG Version: 6.00 Build 0)  -->
<svg version="1.1" id="Layer_1" xmlns="http://www.w3.org/2000/svg" xmlns:xlink="http://www.w3.org/1999/xlink" x="0px" y="0px"
	 viewBox="0 0 864 1152" style="enable-background:new 0 0 864 1152;" xml:space="preserve">
<path d="M406.32,1112.27c-7.35-5.74-14.7-11.48-22.33-17.44c-5.12,10.69-15.47,17.52-30.39,15.24
	c-13.25-2.03-20.55-10.57-23.69-24.65c-7.19,14.04-18.17,18.95-31.89,16.1c-13.72-2.85-21.18-12.19-22.51-27.53
	c-9.91,12.13-21.49,16.31-35.05,10.5c-12.51-5.36-18.68-15.24-16.51-31.07c-12.37,11.18-24.71,13.41-37.39,4.97
	c-11.28-7.51-15.84-18.17-10.72-33.39c-14.56,8.77-27.33,8.29-38.23-2.71c-9.35-9.42-11.02-20.67-4.02-33.92
	c-15.29,4.69-27.81,2.15-36.36-10.99c-7.57-11.64-5.86-23.11,2.97-34.58c-15.89,0.04-27.26-5.27-31.94-20.65
	c-4.33-14.25,1.91-24.26,13.27-33.1c-14.75-5.21-23.66-14.54-22.42-30.69c1.04-13.52,8.41-21.32,24.63-25.97
	c-12.97-9.49-17.54-21.59-11.29-36.25c5.42-12.71,15.77-17.85,30.8-16.35c-10.25-12.31-12.02-24.67-3.3-37.06
	c7.89-11.19,18.9-14.79,33.74-9.97c-8.23-13.44-7.74-25.54,1.96-36.14c9.17-10.03,20.51-12.53,34.6-5.68
	c-5.79-14.73-4.03-26.76,7.31-36.13c9.98-8.23,20.9-8.77,33.44-1.85c-3.81-13.87-1.54-25.36,9.63-33.9
	c11.07-8.47,22.55-7.58,34.34-0.56c-4.93-30.9,24.22-45.83,46.37-30.91c-1.25-13.04,1.81-23.92,12.98-30.84
	c10.84-6.72,21.68-6.42,32.35,1.01c-0.98-29.19,14.13-42.44,37.98-36.13c1.89-9.34,2.2-19.45,6.09-27.91
	c4.46-9.7,14.27-13.81,25.48-13.29c-12.58-23.47-9.53-37.81,7.69-47.52c-5.46-8.51-12.71-16.45-15.97-25.78
	c-3.91-11.22,1.96-21,10.3-27.22c-6.61-4.84-15.27-8.5-19.52-15.03c-4.32-6.65-4.3-16.12-6.44-25.52
	c-21.41-2.21-35.84-17.24-49.76-34.83c-17.49-22.1-37.11-42.56-56.18-63.38c-13.86-15.13-25.28-30.84-20.98-53.1
	c0.36-1.89-1.05-4.54-2.4-6.22c-1.48-1.83-3.67-3.37-5.87-4.3c-25.61-10.95-36.12-31.06-36.87-58.07c-0.17-6.09-4.67-12-6.76-18.14
	c-0.86-2.54-0.62-5.46,0.53-8.36c9.55,7.21,13.48,16.01,14.81,27.07c1.35,11.18,5.18,22.11,8.42,33c1.16,3.88,3.79,7.33,5.75,10.98
	c0.51-1.22,1.02-2.43,1.52-3.65c0.72-14.83,1.28-29.67,2.19-44.49c1.13-18.41-2.03-34.29-22.06-41.48c-1.71-0.61-2.75-3.1-5.18-6.01
	c12.6-2.29,19.81,3.51,25.68,10.77c9.08,11.24,11,24.45,9.09,38.59c-1.37,10.16-1.89,20.44-2.79,30.66
	c0.92,0.11,1.83,0.22,2.75,0.33c5.3-16.65,9.98-33.53,16.06-49.89c6.9-18.58,0.96-32.63-13.02-44.73c-1.32-1.14-3.01-2.01-3.96-3.4
	c-2.43-3.55-4.53-7.32-6.77-11c4.06,1.77,8.66,2.82,12.08,5.43c19.88,15.19,27.69,34.08,18.34,58.83
	c-5.54,14.66-9.55,29.9-14.18,44.9c-2.81,9.1-1.46,17.44,5.75,23.99c2.06,1.87,5.56,3.7,8.06,3.31c22.39-3.44,38.31,8.1,50.14,24.23
	c19.93,27.19,41.39,52.66,66.3,75.44c13.32,12.18,20.31,28.16,19.95,43.62c10.23,5.47,20.14,8.81,27.39,15.16
	c8.71,7.63,7.36,18.79,2.99,30.68c12.91-6.53,24-4.8,33.6,3.82c9.88,8.86,11.54,20.09,7.06,32.72
	c27.71-10.99,49.84,11.99,40.86,37.78c12.16-5.77,23.43-5.46,33.34,3.26c9.99,8.79,12.15,19.82,7.31,33.8
	c13.05-6.04,24.56-5.27,34.3,4.01c9.51,9.06,11.9,20.03,5.71,34.13c14.23-7.06,26-5.26,35.63,4.85c8.74,9.17,11.1,19.98,4.15,33.14
	c13.62-5.05,25.26-4.27,34.79,5.64c9.17,9.54,10.04,20.8,4.67,34.14c14.13-4.5,25.45-1.91,33.91,8.71
	c8.46,10.63,9.02,22.12,0.18,35.18c15.57-5.11,26.83-1,34.64,10.6c7.91,11.75,6.82,23.65-3.41,35.53
	c15.42-1.07,26.43,4.1,31.87,17.74c5.24,13.15,1.9,24.49-10.53,34.18c16.16,1.81,25.63,9.54,28.18,24.06
	c2.49,14.21-4.04,24.18-17.76,31.22c15.32,4.8,22.83,14.74,21.93,29.49c-0.86,14.05-8.73,23.17-24.91,26.24
	c14.19,9.3,19.04,20.93,13.87,35.49c-4.65,13.08-14.64,18.87-29.86,18.33c10.81,11.73,13.56,23.86,5.49,36.77
	c-7.33,11.73-18.34,15.38-33.1,12.05c7.35,14.24,6.93,26.89-4.34,37.67c-9.43,9.02-20.37,9.56-33.34,4.11
	c4.58,14.57,1.7,26.44-10.08,34.91c-11.51,8.27-23.28,7.22-35.54-2.03c3.11,14.85-1.03,25.59-12.93,32.51
	c-12.76,7.42-24.64,5.06-36.21-5.98c0.72,15.67-5.77,25.85-19.07,30.37c-12.33,4.19-23.46,1.36-32.71-10.99
	c-2.16,14.46-8.48,24.53-22.13,27.8c-13.42,3.21-24.03-1.22-32.12-14.4c-3.46,14.44-11.34,23.6-25.28,25.32
	c-13.61,1.68-23.69-4.21-30.31-18.73c-3.33,13.3-11.24,20.07-22.28,23.49C414.71,1112.27,410.51,1112.27,406.32,1112.27z
	 M645,1011.53c-2.01-25.2,18.49-41.32,42.96-31.9c-5.06-27.08,6.4-39.9,36.53-39.95c-6.76-10.25-6.71-20.56-0.8-30.75
	c5.91-10.18,15.42-14.27,27.38-14.38c-14.2-15.7-13.46-40.81,14.99-51.46c-10.16-6.5-16.65-15.86-13.86-27.13
	c2.37-9.57,8.88-18.12,13.43-26.88c-7.26-1.96-13.79-8.26-16.61-18.1c-3.71-12.92,0.02-23.83,11.79-33.42
	c-14.49-0.31-22.6-6.61-27.23-17.55c-4.7-11.11-2.07-21.38,5.93-31.82c-14.3,2.03-23.68-2.94-30.27-13.29
	c-6.55-10.28-5.19-20.78,0.96-31.89c-13.63,3.68-24.19,0.98-32.32-9.03c-8.04-9.89-8.4-20.8-2.57-32.64
	c-23.13,8.84-48.1-9.53-38.54-40.15c-12.57,6.41-23.48,3.89-32.95-5.07c-9.62-9.1-10.53-20.39-6.04-33.35
	c-13.36,6.8-24.3,4.67-34.07-4.27c-9.81-8.98-9.99-20.39-6.71-32.92c-11.77,5.83-22.07,5.45-31.56-2.02
	c-11.33-8.93-14.27-20.57-8.88-35.27c-13.39,6.89-24.45,5.38-34.32-3.45c-10.02-8.96-10.94-20.3-7.06-32.71
	c-0.69-0.63-1.38-1.26-2.07-1.89c-10.31,6.35-20.63,12.7-31.9,19.64c16.68,9.91,22,19.91,19.34,33.63
	c-2.5,12.86-11.4,20.06-29.08,23.13c8.43,11.87,11.43,24.22,1.97,36.61c-9.09,11.9-21.02,15.03-36.26,8.34
	c5.82,14.41,4.13,26.25-6.87,35.36c-11.18,9.25-23.3,8.92-36.67,0.2c4.73,13.91,1.2,24.34-8.92,32.08
	c-11.76,8.99-24.12,8.12-37.21-1.1c3.5,13.87-0.38,23.78-10.39,30.98c-11.12,8-22.69,7.53-35.04-0.6c3.75,13.55,0.57,24-9.46,31.93
	c-10.18,8.05-21.38,8.16-33.22,2.02c5.58,28.36-11.27,43.72-39.5,37.53c6.21,28.22-7.79,43.76-36.37,40.39
	c12.91,22.85-3.96,46.62-29.25,45.12c7.77,9.06,10.39,18.59,6.83,29.55c-3.68,11.34-12.27,16.99-23.29,20.35
	c18.91,17.27,18.28,34.03-1.39,51.9c10.83,2.49,19.66,8.67,21.43,19.29c1.58,9.44-0.88,19.55-1.56,29.43
	c9.26-0.95,18.29,3.64,24.74,12.93c6.58,9.46,6.95,19.72,1.4,30.52c27.64-6.15,42.89,7.75,40.56,35.97
	c10.42-6.99,21.03-7.48,31.64-1.04c10.25,6.23,14.66,15.78,13.58,29.13c10.59-9.54,20.92-11.56,32.44-7.14
	c11.37,4.36,16.49,13.56,18.51,25.88c8.71-10.29,18.3-14.51,30.55-11.55c12.2,2.94,18.93,11.17,22.05,23.39
	c16.86-23.04,39.02-20.99,54.62,4.38c4.95-11.87,13.72-18.2,26.46-18.6c12.87-0.4,21.41,6.56,27.7,17.86
	c5.87-23.94,37.75-31.48,53.19-8.44c8.96-28.44,36.79-30.84,52.69-13.38c6.95-29.71,33.88-33.96,51.32-18.41
	C598.21,1012.98,620.17,998.26,645,1011.53z"/>
</svg>
